<svg width="64" height="64" viewBox="0 0 64 64" fill="none" xmlns="http://www.w3.org/2000/svg">
<path d="M22.0527 15.9883C29.8541 15.995 29.1367 26.6063 29.134 30.8511C29.1287 36.2681 30.4583 47.2021 26.2801 51.3643C22.0207 55.605 13.5084 57.7214 9.25561 54.1808C5.00281 50.6388 12.1228 15.9803 22.0527 15.9883ZM41.9777 16.0043C34.1763 15.9976 34.8764 26.6103 34.8724 30.8551C34.8684 36.2734 33.5202 47.2048 37.6929 51.3736C41.9444 55.6224 50.454 57.7508 54.7121 54.2181C58.9703 50.6841 51.9076 16.0123 41.9777 16.0043Z" fill="#45A1FF"/>
<path fill-rule="evenodd" clip-rule="evenodd" d="M30.6877 8H33.3549L33.3402 27.329C33.3375 30.1308 32.088 31.7365 30.6744 32.5606C29.8704 33.0236 28.9663 33.2854 28.0392 33.3234H28.0045V30.6562H27.9912H27.9979C28.1246 30.6485 28.2507 30.6325 28.3753 30.6082C28.6473 30.5549 28.9954 30.4522 29.3328 30.2562C29.9196 29.9148 30.6704 29.1893 30.673 27.3263L30.6877 8Z" fill="#45A1FF"/>
<path fill-rule="evenodd" clip-rule="evenodd" d="M33.3547 8H30.6875L30.6729 27.3263C30.6702 30.1282 31.9158 31.7365 33.328 32.5633C34.1314 33.027 35.035 33.2897 35.9618 33.3288H35.9992L36.0019 31.9952C36.0019 30.6616 36.0045 30.6616 36.0045 30.6616H36.0165H36.0099C35.9979 30.6616 35.9752 30.6616 35.9418 30.6576C35.4962 30.6183 35.0644 30.4827 34.6763 30.2602C34.0895 29.9174 33.3387 29.192 33.3414 27.329L33.3547 8Z" fill="#45A1FF"/>
</svg>
